<svg xmlns="http://www.w3.org/2000/svg" viewBox="0 0 1000 650" fill="none">
  <defs><linearGradient id="violet" x1="0" y1="0" x2="1" y2="1"><stop stop-color="#e7f2ff"/><stop offset=".48" stop-color="#9188d6"/><stop offset="1" stop-color="#6959ad"/></linearGradient></defs>
  <rect x="20" y="20" width="960" height="610" rx="54" stroke="url(#violet)" stroke-width="7" opacity=".84"/>
  <rect x="35" y="35" width="930" height="580" rx="44" stroke="#f5f3ff" stroke-width="2" opacity=".7"/>
  <g stroke="#e9efff" stroke-width="3" opacity=".72">
    <path d="M65 135 142 67l84 52 76-39M700 556l78-68 87 39 68-72"/>
    <path d="M805 80 850 135l63-18M95 520l58-47 66 31"/>
  </g>
  <g fill="#fff" opacity=".92">
    <circle cx="65" cy="135" r="6"/><circle cx="142" cy="67" r="5"/><circle cx="226" cy="119" r="5"/><circle cx="302" cy="80" r="4"/>
    <circle cx="700" cy="556" r="5"/><circle cx="778" cy="488" r="6"/><circle cx="865" cy="527" r="4"/><circle cx="933" cy="455" r="5"/>
  </g>
  <g stroke="url(#violet)" stroke-width="6" opacity=".84">
    <path d="M101 285c32-43 75-71 129-83M770 446c32-43 75-71 129-83" stroke-linecap="round"/>
  </g>
  <g fill="#eef5ff"><path d="m99 42 10 29 29 10-29 10-10 29-10-29-29-10 29-10 10-29Z"/><path d="m905 523 9 25 25 9-25 9-9 25-9-25-25-9 25-9 9-25Z"/></g>
</svg>